<?xml version="1.0" encoding="UTF-8"?>
<svg id="Layer_2" data-name="Layer 2" xmlns="http://www.w3.org/2000/svg" viewBox="0 0 47.96 47.96">
  <defs>
    <style>
      .cls-1 {
        fill: #000;
        stroke-width: 0px;
      }

      .cls-2 {
        fill: none;
        stroke: #231f20;
        stroke-miterlimit: 10;
        stroke-width: 4px;
      }
    </style>
  </defs>
  <g id="Layer_1-2" data-name="Layer 1">
    <g>
      <g>
        <path class="cls-1" d="M22.42,16.74c.55.76.82,1.67.82,2.72s-.28,1.96-.83,2.63c-.31.37-.76.71-1.36,1.02.91.33,1.6.86,2.06,1.57.46.72.69,1.59.69,2.61s-.26,2.01-.79,2.84c-.34.56-.76,1.02-1.26,1.4-.57.44-1.24.73-2.02.9s-1.61.24-2.52.24h-8.04V14.84h8.62c2.18.03,3.72.67,4.62,1.9ZM12.74,17.94v3.93h4.34c.77,0,1.4-.15,1.89-.44.48-.29.72-.82.72-1.57,0-.83-.32-1.38-.96-1.65-.55-.19-1.25-.28-2.11-.28h-3.88ZM12.74,24.82v4.76h4.33c.77,0,1.38-.1,1.81-.31.78-.39,1.17-1.13,1.17-2.23,0-.93-.38-1.57-1.14-1.91-.42-.19-1.02-.29-1.78-.3h-4.39Z"/>
        <path class="cls-1" d="M35.34,19.75c.92.41,1.68,1.06,2.28,1.95.54.78.89,1.69,1.05,2.73.09.61.13,1.48.11,2.62h-9.61c.05,1.32.51,2.25,1.38,2.78.53.33,1.16.5,1.9.5.79,0,1.42-.2,1.92-.61.27-.22.5-.52.71-.91h3.52c-.09.78-.52,1.58-1.28,2.38-1.18,1.28-2.84,1.92-4.96,1.92-1.76,0-3.3-.54-4.65-1.62s-2.01-2.84-2.01-5.28c0-2.29.61-4.04,1.82-5.26,1.21-1.22,2.78-1.83,4.72-1.83,1.15,0,2.18.21,3.1.62ZM30.18,22.73c-.49.5-.79,1.18-.92,2.04h5.94c-.06-.92-.37-1.61-.92-2.08s-1.23-.71-2.05-.71c-.89,0-1.57.25-2.06.75Z"/>
        <rect class="cls-1" x="28.56" y="15.56" width="7.36" height="2.35"/>
      </g>
      <rect class="cls-2" x="2" y="2" width="43.96" height="43.96" rx="5.81" ry="5.81"/>
    </g>
  </g>
</svg>